<?xml version="1.0" encoding="UTF-8"?><svg id="Layer_1" xmlns="http://www.w3.org/2000/svg" viewBox="0 0 1080 700"><path d="M646.612,30.5c-32.729,184.449,59.488,611.974,331.777,551.934,152.784-33.689,76.732-171.389,95.466-199.823-239.845,364.033-541.016-413.892-65.895-114.123-9.52-260.87-173.345-82.651-361.348-237.988Z"/><path d="M523.485,425.659c-88.583,222.213-390.918,302.128-237.152,248.853,277.743-96.23,251.898-156.366,615.511-3.35-295.379-124.301-292.454-381.592-331.403-613.133,17.662,104.994-14.552,258.608-46.956,367.63Z"/><path d="M168.139,223.865c81.79,12.865,182.079,39.49,244.299-39.532,4.712,115.252-33.481,234.503-135.952,310.152-102.471,75.649-186.61,44.935-273.158-27.338,37.521,66.258,101.416,135.621,172.369,140.95,414.532,31.129,376.205-744.715,241.176-573.927-83.393,105.477-106.76,161.698-248.733,189.695Z"/></svg>